<svg xmlns="http://www.w3.org/2000/svg" viewBox="0 0 132.22 84.39"><defs><style>.cls-1{fill:#004190;}.cls-2{fill:#fff;}.cls-3{fill:#f39800;}.cls-4{fill:#718cc7;}</style></defs><title>CMMMlogo</title><g id="图层_1" data-name="图层 1"><rect class="cls-1" x="4.53" y="25.99" width="103.19" height="32.77"/><path class="cls-2" d="M51.8,52.59,49,44c-1-3.43-3.13-3.07-3.13-3.07h-6V60.56h3.75V45.3l4.48,13A3.75,3.75,0,0,0,53,60.51l5.36-14.9v14.9H64V40.92H56.28Z" transform="translate(-9.87 -8.47)"/><path class="cls-2" d="M77.64,52.59,74.77,44c-1-3.43-3.12-3.07-3.12-3.07h-6V60.56h3.75V45.3l4.48,13a3.75,3.75,0,0,0,4.89,2.24l5.37-14.9v14.9h5.68V40.92H82.07Z" transform="translate(-9.87 -8.47)"/><path class="cls-2" d="M103.42,52.59,100.61,44c-1-3.43-3.12-3.07-3.12-3.07h-6V60.56h3.75V45.3l4.48,13a3.76,3.76,0,0,0,4.9,2.24L110,45.61v14.9h5.68V40.92H108Z" transform="translate(-9.87 -8.47)"/><path class="cls-2" d="M34.45,57.12H31.12c-3,0-4.53-.36-5.73-1.15-1.51-.93-2.29-2.81-2.29-5.52,0-2.34.73-4,2.13-4.89,1.15-.73,2.5-1.05,5.06-1.05.73,0,2,.06,3.75.16s3.12.16,4.11.16v-3.7H27.73c-3.75,0-6.66.94-8.7,2.86a9.2,9.2,0,0,0-2.76,6.88,9.23,9.23,0,0,0,2.45,6.56,10.61,10.61,0,0,0,8,3H38.2V57.12Z" transform="translate(-9.87 -8.47)"/><polygon class="cls-3" points="55.17 23.34 74.91 10.73 56.94 4.69 27.92 23.34 55.17 23.34"/><polygon class="cls-1" points="74.33 84.39 77.41 84.39 112.31 61.73 112.31 23.34 92.67 16.72 82.31 23.34 110.44 23.34 110.44 60.63 74.33 84.39"/><polygon class="cls-4" points="92.67 16.72 82.31 23.34 55.17 23.34 74.91 10.73 92.67 16.72"/><polygon class="cls-3" points="57.2 61 37.4 73.61 55.37 79.7 84.44 61 57.2 61"/><polygon class="cls-1" points="38.03 0 34.9 0 0 22.61 0 61 19.64 67.62 30.06 61 1.93 61 1.93 23.7 38.03 0"/><polygon class="cls-4" points="19.64 67.62 30.06 61 57.2 61 37.4 73.61 19.64 67.62"/><path class="cls-2" d="M133.08,18.16a9,9,0,1,0,9,8.93A8.89,8.89,0,0,0,133.08,18.16Zm0,16.42a7.42,7.42,0,1,1,7.42-7.42A7.44,7.44,0,0,1,133.08,34.58Zm1.79-6.73a2.47,2.47,0,0,0,1.58-2.41c0-1.44-.89-2.61-2.88-2.61h-3.16a.15.15,0,0,0-.14.14v8.24a.15.15,0,0,0,.14.14h1.09a.15.15,0,0,0,.14-.14V28.12h1.79l1.51,3.16c0,.07.07.07.14.07h1.23a.15.15,0,0,0,.14-.14v-.07Zm-1.58-.9h-1.65V24h1.65a1.45,1.45,0,0,1,1.65,1.51Q134.94,26.95,133.29,27Z" transform="translate(-9.87 -8.47)"/></g></svg>