<svg width="42" height="42" viewBox="0 0 42 42" fill="none" xmlns="http://www.w3.org/2000/svg">
<rect opacity="0.8" x="8.14258" y="8.42871" width="14.3669" height="25.1421" rx="2.44436" fill="url(#paint0_linear_124_24260)"/>
<g filter="url(#filter0_bi_124_24260)">
<rect x="17.0977" y="6.33374" width="16.7613" height="29.3323" rx="3.14101" fill="#C4E0FF" fill-opacity="0.85"/>
</g>
<path d="M21.3695 25.8195C21.4521 25.8722 21.5485 25.9016 21.6475 25.9045C21.747 25.9124 21.8468 25.8924 21.9347 25.8468C22.0286 25.8078 22.109 25.7438 22.1661 25.6621L22.1661 25.6621L22.1667 25.6612C22.2495 25.5373 22.3233 25.4055 22.3959 25.2758L22.3959 25.2758L22.3964 25.2749L23.0055 24.2336C23.0197 24.2092 23.0124 24.1779 22.9887 24.1624C22.9005 24.1046 22.8079 24.053 22.7117 24.0081L22.7117 24.008L22.7105 24.0075C22.5303 23.9288 22.3356 23.8844 22.1375 23.8769L22.1375 23.8768L22.1348 23.8769C22.0065 23.8784 21.8789 23.8939 21.7542 23.923C21.7398 23.9264 21.7274 23.9357 21.7201 23.9486L21.6559 24.0623L21.6557 24.0626L21.2019 24.8544C21.122 24.9715 21.0775 25.1075 21.0737 25.2476H21.0736V25.249V25.3671H21.0732L21.0741 25.3742C21.0839 25.4455 21.106 25.5146 21.1397 25.5787C21.1907 25.6786 21.2706 25.762 21.3695 25.8195ZM21.3695 25.8195C21.3692 25.8193 21.3688 25.8191 21.3685 25.8189L21.3972 25.7742L21.3706 25.8201C21.3702 25.8199 21.3699 25.8197 21.3695 25.8195ZM27.0333 16.5691C27.0375 16.607 27.0375 16.6452 27.0333 16.6831C27.0346 16.7972 27.0002 16.9091 26.9346 17.0048L27.0333 16.5691ZM27.0333 16.5691C27.0196 16.4511 26.9599 16.3422 26.8659 16.2638L26.9011 16.2241C26.9009 16.2239 26.9007 16.2238 26.9005 16.2236C26.8384 16.1686 26.7635 16.1286 26.6822 16.1067L26.6822 16.1067L26.6801 16.1062C26.6011 16.0883 26.5189 16.0882 26.4399 16.1057C26.321 16.1233 26.2108 16.1765 26.1253 16.258L26.1252 16.2579L26.1231 16.2602C26.0573 16.3307 26.0025 16.4099 25.9605 16.4954L25.8202 16.7414C25.8039 16.7672 25.7807 16.7891 25.7526 16.8046C25.7244 16.8203 25.6922 16.8289 25.6592 16.8296C25.6263 16.8295 25.5941 16.8212 25.566 16.8057C25.5378 16.7901 25.5149 16.7678 25.4992 16.7415L25.3412 16.4742C25.2964 16.3882 25.236 16.3105 25.1629 16.2447L25.1629 16.2447L25.1624 16.2443C25.0994 16.1888 25.0237 16.1483 24.9416 16.1257C24.8595 16.1031 24.773 16.0991 24.6889 16.1138L24.6889 16.1138L24.6876 16.1141C24.6027 16.1312 24.523 16.1669 24.4547 16.2184C24.3867 16.2697 24.3318 16.3354 24.2946 16.4105C24.2425 16.5082 24.2196 16.6178 24.2288 16.7272M27.0333 16.5691L20.6983 22.403H22.32H22.3238L22.3238 22.4032C22.3772 22.4069 22.4304 22.3954 22.4765 22.3703C22.5144 22.3437 22.5464 22.3108 22.5712 22.2732L24.5491 18.9528C24.6628 18.7488 24.7764 18.5593 24.8931 18.3647C24.9002 18.3529 24.9073 18.341 24.9145 18.3291L24.9163 18.326L24.9164 18.3261C24.9469 18.2823 24.9629 18.2312 24.9629 18.1793C24.9629 18.1274 24.9469 18.0763 24.9164 18.0325L24.9144 18.0297L24.9145 18.0296C24.8506 17.9234 24.7888 17.8148 24.7281 17.7079C24.707 17.6708 24.686 17.6338 24.6651 17.5973C24.665 17.5972 24.665 17.5971 24.6649 17.597L24.4725 17.2685C24.4724 17.2683 24.4723 17.2682 24.4723 17.2681C24.4241 17.1888 24.3781 17.107 24.3332 17.0272C24.3177 16.9997 24.3024 16.9724 24.2871 16.9455L24.2859 16.9434L24.286 16.9434C24.2515 16.8759 24.232 16.8023 24.2288 16.7272M26.9795 17.0331L26.7659 17.4018L26.7658 17.402L24.0335 22.0891L24.03 22.1537C24.0295 22.1624 24.0268 22.1709 24.0223 22.1784C24.0073 22.203 23.9996 22.2306 23.9996 22.2587C23.9996 22.2864 24.0072 22.3138 24.0218 22.3382C24.0375 22.3617 24.0594 22.3814 24.0858 22.395C24.1125 22.4088 24.1428 22.4158 24.1735 22.4153L24.1744 22.4152V22.4152H26.4924H26.4974L26.4974 22.4155C26.5297 22.4185 26.5606 22.43 26.5868 22.449C26.7537 22.5562 26.8885 22.7031 26.9774 22.8755L26.9303 22.8999M26.9795 17.0331L20.6974 22.4561C20.5985 22.4527 20.5001 22.4708 20.4098 22.509L20.3893 22.4601C20.3893 22.4601 20.3893 22.4601 20.3893 22.4601C20.29 22.5017 20.2038 22.5679 20.14 22.652L20.14 22.652L20.1397 22.6525C20.0873 22.723 20.0516 22.8037 20.0352 22.889C20.0189 22.9743 20.0223 23.0619 20.0452 23.1457C20.0676 23.2308 20.1094 23.3099 20.1673 23.3777C20.2229 23.4455 20.2937 23.5003 20.3743 23.5382L20.3743 23.5382L20.3759 23.5389C20.4678 23.5785 20.5681 23.5967 20.6686 23.5921H27.0419C27.069 23.5921 27.0917 23.5718 27.0946 23.5449C27.1055 23.4463 27.1055 23.3469 27.0946 23.2483L27.0947 23.2483L27.0945 23.2472C27.0776 23.1178 27.038 22.9922 26.9774 22.8754L26.9303 22.8999M26.9795 17.0331C27.0499 16.9299 27.0871 16.8092 27.0864 16.6858L26.9795 17.0331ZM26.9303 22.8999C26.9881 23.0112 27.0258 23.1309 27.0419 23.2541M26.9303 22.8999C26.8455 22.7355 26.7167 22.5951 26.5568 22.4927C26.5382 22.479 26.5159 22.4705 26.4924 22.4683L27.0419 23.2541M24.2288 16.7272C24.2287 16.7268 24.2287 16.7264 24.2287 16.726L24.2817 16.7238L24.2289 16.7284C24.2288 16.728 24.2288 16.7276 24.2288 16.7272ZM27.0419 23.2541C27.0523 23.3488 27.0523 23.4443 27.0419 23.539V23.2541ZM28.7976 25.477L28.7516 25.5033C28.7514 25.503 28.7512 25.5026 28.751 25.5023C28.6952 25.4047 28.6403 25.3086 28.5813 25.2166L28.5801 25.2147L28.5801 25.2147L26.0475 20.883L26.0471 20.8823L26.0471 20.8823C26.0367 20.8639 26.0263 20.8456 26.0158 20.8272C25.9618 20.7321 25.9065 20.6348 25.8483 20.5174C25.8446 20.5101 25.8428 20.502 25.8428 20.4938V20.449C25.8428 20.4197 25.8423 20.3917 25.8418 20.363C25.8409 20.3035 25.8399 20.2412 25.8428 20.1581C25.8448 20.1004 25.8514 20.0428 25.8578 19.9876C25.8584 19.9819 25.8591 19.9763 25.8597 19.9708C25.8667 19.9096 25.8728 19.8513 25.8728 19.7936V19.7877L25.8731 19.7878C25.899 19.5538 25.9517 19.3232 26.0303 19.1002C26.0725 18.9792 26.1238 18.8611 26.1837 18.747C26.1926 18.73 26.21 18.7192 26.2292 18.7187C26.2484 18.7181 26.2664 18.7281 26.2763 18.7446L28.0275 21.6878L28.0276 21.688C28.1305 21.8588 28.2339 22.0303 28.3244 22.1897L28.326 22.1925L28.3259 22.1926C28.3412 22.2238 28.3656 22.2508 28.3966 22.2702C28.4279 22.2825 28.4611 22.2903 28.495 22.2932H30.27H30.2704C30.42 22.2943 30.5645 22.3474 30.6763 22.4429C30.7649 22.5069 30.8341 22.5925 30.8765 22.691C30.9236 22.7929 30.9414 22.905 30.928 23.0158M28.7976 25.477C28.8468 25.5728 28.9154 25.6586 28.9994 25.7294C29.0899 25.8048 29.2052 25.8479 29.3256 25.8515L29.3211 25.9044C29.3216 25.9045 29.3221 25.9045 29.3226 25.9045C29.449 25.9149 29.5757 25.8854 29.6829 25.8201M28.7976 25.477L28.7976 25.4769C28.7418 25.3792 28.686 25.2816 28.6259 25.1879L28.7976 25.477ZM29.6829 25.8201C29.6825 25.8202 29.6822 25.8204 29.6818 25.8206L29.6562 25.7742L29.6839 25.8194C29.6835 25.8197 29.6832 25.8199 29.6829 25.8201ZM29.6829 25.8201C29.7608 25.7768 29.828 25.7176 29.8794 25.6465L29.8799 25.6459C29.9657 25.5238 30.0083 25.3785 30.0011 25.2313M30.0011 25.2313C30.0011 25.2317 30.0011 25.2321 30.0011 25.2325L29.9481 25.2327L30.0011 25.23C30.0011 25.2304 30.0011 25.2309 30.0011 25.2313ZM30.0011 25.2313C30.0007 25.1604 29.988 25.09 29.9636 25.0231L29.9637 25.0231L29.962 25.0193C29.918 24.9234 29.8655 24.8321 29.8144 24.7432L29.8138 24.7421L29.8135 24.7418L29.2409 23.765M29.2409 23.765C29.234 23.7438 29.2345 23.7211 29.2423 23.7001L29.2427 23.7003L29.2443 23.6935C29.2501 23.6684 29.2648 23.6452 29.2866 23.6281C29.3084 23.611 29.336 23.6011 29.3649 23.6003M29.2409 23.765C29.2413 23.7663 29.2418 23.7676 29.2423 23.7689L29.1926 23.7874M29.2409 23.765L29.2383 23.7606L29.1926 23.7874M29.3649 23.6003H30.3215V23.6004L30.3244 23.6002C30.3988 23.5962 30.4717 23.5783 30.539 23.5476M29.3649 23.6003H29.3643V23.5472M29.3649 23.6003C29.3651 23.6003 29.3653 23.6003 29.3655 23.6003L29.3643 23.5472M30.539 23.5476C30.6265 23.5161 30.7029 23.4609 30.7584 23.3884M30.539 23.5476C30.5382 23.5479 30.5375 23.5481 30.5367 23.5484L30.519 23.4984M30.539 23.5476C30.5397 23.5472 30.5405 23.5469 30.5412 23.5466L30.519 23.4984M30.7584 23.3884C30.8004 23.3347 30.8389 23.2785 30.8736 23.2202L30.8741 23.2205L30.8769 23.2137C30.9036 23.1504 30.9208 23.0838 30.928 23.0158M30.7584 23.3884C30.7583 23.3885 30.7583 23.3885 30.7582 23.3886L30.7164 23.3559M30.7584 23.3884C30.7585 23.3883 30.7585 23.3882 30.7586 23.3881L30.7164 23.3559M30.928 23.0158C30.928 23.0157 30.928 23.0155 30.928 23.0154L30.8753 23.0098L30.9279 23.0163C30.928 23.0161 30.928 23.016 30.928 23.0158ZM30.7164 23.3559C30.6668 23.4208 30.5982 23.4704 30.519 23.4984M30.7164 23.3559C30.7572 23.3038 30.7944 23.2495 30.828 23.193L30.519 23.4984M30.519 23.4984C30.4572 23.5269 30.3901 23.5435 30.3215 23.5472M30.519 23.4984L30.3215 23.5472M30.3215 23.5472H29.3643M30.3215 23.5472L29.1926 23.6816M29.3643 23.5472C29.3239 23.5482 29.2851 23.5619 29.2539 23.5863C29.2228 23.6106 29.2012 23.6442 29.1926 23.6816M29.1926 23.6816C29.1798 23.7158 29.1798 23.7532 29.1926 23.7874M29.1926 23.6816V23.7874" fill="#1684FC" stroke="#1684FC" stroke-width="0.106137" stroke-linejoin="round"/>
<path d="M22.3359 8.42871H28.6214" stroke="white" stroke-width="1.70828" stroke-linecap="round"/>
<path d="M23.3828 33.571H27.5731" stroke="white" stroke-width="1.70828" stroke-linecap="round"/>
<defs>
<filter id="filter0_bi_124_24260" x="15.8467" y="5.08283" width="19.2635" height="31.8341" filterUnits="userSpaceOnUse" color-interpolation-filters="sRGB">
<feFlood flood-opacity="0" result="BackgroundImageFix"/>
<feGaussianBlur in="BackgroundImageFix" stdDeviation="0.625456"/>
<feComposite in2="SourceAlpha" operator="in" result="effect1_backgroundBlur_124_24260"/>
<feBlend mode="normal" in="SourceGraphic" in2="effect1_backgroundBlur_124_24260" result="shape"/>
<feColorMatrix in="SourceAlpha" type="matrix" values="0 0 0 0 0 0 0 0 0 0 0 0 0 0 0 0 0 0 127 0" result="hardAlpha"/>
<feOffset/>
<feGaussianBlur stdDeviation="0.208485"/>
<feComposite in2="hardAlpha" operator="arithmetic" k2="-1" k3="1"/>
<feColorMatrix type="matrix" values="0 0 0 0 1 0 0 0 0 1 0 0 0 0 1 0 0 0 1 0"/>
<feBlend mode="normal" in2="shape" result="effect2_innerShadow_124_24260"/>
</filter>
<linearGradient id="paint0_linear_124_24260" x1="15" y1="33.9998" x2="32.4809" y2="15.2224" gradientUnits="userSpaceOnUse">
<stop stop-color="#95C8FF"/>
<stop offset="0.709084" stop-color="#1684FC"/>
<stop offset="1" stop-color="#1684FC"/>
</linearGradient>
</defs>
</svg>