<svg width="42" height="42" viewBox="0 0 42 42" fill="none" xmlns="http://www.w3.org/2000/svg">
<g opacity="0.7">
<rect opacity="0.8" x="8.14258" y="8.42896" width="14.3669" height="25.1421" rx="2.44436" fill="url(#paint0_linear_124_24391)"/>
<g filter="url(#filter0_bi_124_24391)">
<rect x="17.0977" y="6.33374" width="16.7613" height="29.3323" rx="3.14101" fill="#C4E0FF" fill-opacity="0.85"/>
</g>
<path d="M21.3695 25.8198C21.4521 25.8725 21.5485 25.9018 21.6475 25.9048C21.747 25.9126 21.8468 25.8926 21.9347 25.847C22.0286 25.8081 22.109 25.7441 22.1661 25.6623L22.1661 25.6623L22.1667 25.6614C22.2495 25.5375 22.3233 25.4057 22.3959 25.2761L22.3959 25.276L22.3964 25.2752L23.0055 24.2338C23.0197 24.2094 23.0124 24.1781 22.9887 24.1626C22.9005 24.1048 22.8079 24.0533 22.7117 24.0083L22.7117 24.0083L22.7105 24.0077C22.5303 23.929 22.3356 23.8847 22.1375 23.8771L22.1375 23.8771L22.1348 23.8771C22.0065 23.8787 21.8789 23.8942 21.7542 23.9233C21.7398 23.9267 21.7274 23.9359 21.7201 23.9489L21.6559 24.0626L21.6557 24.0628L21.2019 24.8546C21.122 24.9717 21.0775 25.1078 21.0737 25.2478H21.0736V25.2492V25.3673H21.0732L21.0741 25.3745C21.0839 25.4457 21.106 25.5148 21.1397 25.579C21.1907 25.6788 21.2706 25.7623 21.3695 25.8198ZM21.3695 25.8198C21.3692 25.8195 21.3688 25.8193 21.3685 25.8191L21.3972 25.7744L21.3706 25.8204C21.3702 25.8202 21.3699 25.82 21.3695 25.8198ZM27.0333 16.5694C27.0375 16.6073 27.0375 16.6455 27.0333 16.6834C27.0346 16.7975 27.0002 16.9094 26.9346 17.005L27.0333 16.5694ZM27.0333 16.5694C27.0196 16.4514 26.9599 16.3425 26.8659 16.264L26.9011 16.2244C26.9009 16.2242 26.9007 16.224 26.9005 16.2238C26.8384 16.1688 26.7635 16.1288 26.6822 16.1069L26.6822 16.1069L26.6801 16.1064C26.6011 16.0886 26.5189 16.0884 26.4399 16.106C26.321 16.1236 26.2108 16.1767 26.1253 16.2582L26.1252 16.2581L26.1231 16.2604C26.0573 16.3309 26.0025 16.4102 25.9605 16.4957L25.8202 16.7416C25.8039 16.7675 25.7807 16.7893 25.7526 16.8049C25.7244 16.8205 25.6922 16.8291 25.6592 16.8298C25.6263 16.8298 25.5941 16.8215 25.566 16.8059C25.5378 16.7903 25.5149 16.7681 25.4992 16.7418L25.3412 16.4744C25.2964 16.3884 25.236 16.3108 25.1629 16.245L25.1629 16.245L25.1624 16.2446C25.0994 16.1891 25.0237 16.1485 24.9416 16.126C24.8595 16.1034 24.773 16.0993 24.6889 16.1141L24.6889 16.1141L24.6876 16.1143C24.6027 16.1315 24.523 16.1671 24.4547 16.2186C24.3867 16.2699 24.3318 16.3356 24.2946 16.4108C24.2425 16.5084 24.2196 16.618 24.2288 16.7275M27.0333 16.5694L20.6983 22.4033H22.32H22.3238L22.3238 22.4034C22.3772 22.4072 22.4304 22.3956 22.4765 22.3705C22.5144 22.3439 22.5464 22.311 22.5712 22.2735L24.5491 18.953C24.6628 18.749 24.7764 18.5596 24.8931 18.3649C24.9002 18.3531 24.9073 18.3412 24.9145 18.3294L24.9163 18.3263L24.9164 18.3263C24.9469 18.2825 24.9629 18.2315 24.9629 18.1795C24.9629 18.1276 24.9469 18.0766 24.9164 18.0328L24.9144 18.0299L24.9145 18.0298C24.8506 17.9237 24.7888 17.815 24.7281 17.7082C24.707 17.671 24.686 17.6341 24.6651 17.5975C24.665 17.5974 24.665 17.5973 24.6649 17.5973L24.4725 17.2687C24.4724 17.2686 24.4723 17.2685 24.4723 17.2683C24.4241 17.1891 24.3781 17.1073 24.3332 17.0275C24.3177 16.9999 24.3024 16.9726 24.2871 16.9457L24.2859 16.9437L24.286 16.9436C24.2515 16.8762 24.232 16.8026 24.2288 16.7275M26.9795 17.0333L26.7659 17.4021L26.7658 17.4022L24.0335 22.0893L24.0299 22.1539C24.0295 22.1627 24.0268 22.1711 24.0223 22.1786C24.0073 22.2032 23.9996 22.2309 23.9996 22.2589C23.9996 22.2866 24.0072 22.314 24.0218 22.3384C24.0375 22.362 24.0594 22.3816 24.0858 22.3952C24.1125 22.409 24.1428 22.416 24.1735 22.4155L24.1744 22.4155V22.4155H26.4924H26.4974L26.4974 22.4157C26.5297 22.4187 26.5606 22.4302 26.5868 22.4492C26.7537 22.5564 26.8885 22.7034 26.9774 22.8758L26.9303 22.9001M26.9795 17.0333L20.6974 22.4563C20.5985 22.4529 20.5001 22.471 20.4098 22.5093L20.3893 22.4603C20.3893 22.4603 20.3893 22.4603 20.3893 22.4603C20.29 22.5019 20.2038 22.5681 20.14 22.6523L20.14 22.6523L20.1397 22.6527C20.0873 22.7233 20.0516 22.804 20.0352 22.8893C20.0189 22.9745 20.0223 23.0621 20.0452 23.1459C20.0676 23.231 20.1094 23.3102 20.1673 23.3779C20.2229 23.4458 20.2937 23.5006 20.3743 23.5385L20.3743 23.5385L20.3759 23.5392C20.4678 23.5787 20.5681 23.5969 20.6686 23.5924H27.0419C27.069 23.5924 27.0917 23.572 27.0946 23.5451C27.1055 23.4465 27.1055 23.3471 27.0946 23.2485L27.0947 23.2485L27.0945 23.2474C27.0776 23.1181 27.038 22.9924 26.9774 22.8757L26.9303 22.9001M26.9795 17.0333C27.0499 16.9301 27.0871 16.8094 27.0864 16.686L26.9795 17.0333ZM26.9303 22.9001C26.9881 23.0114 27.0258 23.1312 27.0419 23.2543M26.9303 22.9001C26.8455 22.7358 26.7167 22.5954 26.5568 22.493C26.5382 22.4792 26.5159 22.4708 26.4924 22.4686L27.0419 23.2543M24.2288 16.7275C24.2287 16.7271 24.2287 16.7267 24.2287 16.7263L24.2817 16.7241L24.2289 16.7286C24.2288 16.7282 24.2288 16.7278 24.2288 16.7275ZM27.0419 23.2543C27.0523 23.349 27.0523 23.4446 27.0419 23.5393V23.2543ZM26.0303 19.1005C25.9517 19.3235 25.899 19.554 25.8731 19.788L25.8728 19.788V19.7938C25.8728 19.8515 25.8667 19.9099 25.8597 19.971C25.8591 19.9766 25.8584 19.9822 25.8578 19.9878C25.8514 20.043 25.8448 20.1006 25.8428 20.1584C25.8399 20.2415 25.8409 20.3037 25.8418 20.3633C25.8423 20.3919 25.8428 20.4199 25.8428 20.4493V20.4941C25.8428 20.5023 25.8446 20.5103 25.8483 20.5177C25.9065 20.635 25.9618 20.7323 26.0158 20.8274C26.0263 20.8458 26.0367 20.8641 26.0471 20.8825L26.0471 20.8825L26.0475 20.8832L28.5801 25.215L28.5801 25.215L28.5813 25.2168C28.6403 25.3088 28.6953 25.405 28.751 25.5025C28.7512 25.5029 28.7514 25.5032 28.7516 25.5035L28.7976 25.4772M26.0303 19.1005L29.6829 25.8203M26.0303 19.1005C26.0725 18.9794 26.1238 18.8614 26.1837 18.7473C26.1926 18.7303 26.21 18.7194 26.2292 18.7189C26.2484 18.7184 26.2664 18.7283 26.2763 18.7448L28.0275 21.688L28.0276 21.6883L28.0277 21.6883C28.1305 21.8591 28.2339 22.0306 28.3244 22.19L28.326 22.1928L28.3259 22.1928C28.3412 22.2241 28.3656 22.251 28.3966 22.2704C28.4279 22.2828 28.4611 22.2906 28.495 22.2934H30.27H30.2704C30.42 22.2945 30.5645 22.3476 30.6763 22.4431L26.0303 19.1005ZM28.7976 25.4772C28.8468 25.5731 28.9154 25.6588 28.9994 25.7296C29.0899 25.805 29.2052 25.8482 29.3256 25.8518M28.7976 25.4772C28.7418 25.3795 28.686 25.2818 28.6259 25.1882L28.7976 25.4772ZM29.3256 25.8518L29.3211 25.9047C29.3216 25.9047 29.3221 25.9047 29.3226 25.9048M29.3256 25.8518C29.4418 25.8616 29.5581 25.8344 29.6562 25.7744M29.3256 25.8518L29.324 25.9048C29.3236 25.9048 29.3231 25.9048 29.3226 25.9048M29.3226 25.9048C29.449 25.9152 29.5757 25.8856 29.6829 25.8203M29.3226 25.9048L29.8364 25.6156M29.6829 25.8203C29.6825 25.8205 29.6822 25.8207 29.6818 25.8209L29.6562 25.7744M29.6829 25.8203C29.6832 25.8201 29.6835 25.8199 29.6839 25.8197L29.6562 25.7744M29.6562 25.7744C29.7279 25.7348 29.7894 25.6805 29.8364 25.6156M29.8364 25.6156C29.9158 25.5027 29.9549 25.3686 29.9481 25.233M29.8364 25.6156L30.828 22.7129M29.9481 25.233L30.0011 25.2328C30.0011 25.2323 30.0011 25.2319 30.0011 25.2315C30.0007 25.1606 29.988 25.0903 29.9636 25.0234L29.9637 25.0233L29.962 25.0195C29.918 24.9236 29.8655 24.8323 29.8144 24.7434L29.8138 24.7424L29.8135 24.742L29.2409 23.7652C29.234 23.7441 29.2345 23.7214 29.2423 23.7004L29.2427 23.7005L29.2443 23.6938C29.2501 23.6686 29.2648 23.6454 29.2866 23.6283C29.3084 23.6113 29.336 23.6013 29.3649 23.6005H30.3215V23.6006L30.3244 23.6005C30.3988 23.5964 30.4717 23.5785 30.539 23.5478C30.6265 23.5164 30.7029 23.4612 30.7584 23.3886C30.8004 23.3349 30.8389 23.2787 30.8736 23.2204L30.8741 23.2207L30.8769 23.2139C30.9036 23.1506 30.9208 23.084 30.928 23.0161C30.928 23.0159 30.928 23.0158 30.928 23.0156L30.8753 23.0101M29.9481 25.233C29.9478 25.1678 29.9362 25.1032 29.9137 25.0416M29.9481 25.233L29.9137 25.0416M30.8753 23.0101C30.8876 22.9088 30.8713 22.8062 30.828 22.7129M30.8753 23.0101C30.8687 23.0729 30.8528 23.1346 30.828 23.1933L30.8753 23.0101ZM30.828 22.7129L30.8768 22.692C30.8767 22.6917 30.8766 22.6915 30.8765 22.6913C30.8764 22.691 30.8763 22.6908 30.8762 22.6906L30.828 22.7129ZM29.9137 25.0416C29.8708 24.948 29.8193 24.8584 29.7678 24.7688L29.9137 25.0416Z" fill="#1684FC" stroke="#1684FC" stroke-width="0.106137" stroke-linejoin="round"/>
<path d="M22.3359 8.42896H28.6214" stroke="white" stroke-width="1.70828" stroke-linecap="round"/>
<path d="M23.3828 33.571H27.5731" stroke="white" stroke-width="1.70828" stroke-linecap="round"/>
</g>
<defs>
<filter id="filter0_bi_124_24391" x="15.8467" y="5.08283" width="19.2635" height="31.8341" filterUnits="userSpaceOnUse" color-interpolation-filters="sRGB">
<feFlood flood-opacity="0" result="BackgroundImageFix"/>
<feGaussianBlur in="BackgroundImageFix" stdDeviation="0.625456"/>
<feComposite in2="SourceAlpha" operator="in" result="effect1_backgroundBlur_124_24391"/>
<feBlend mode="normal" in="SourceGraphic" in2="effect1_backgroundBlur_124_24391" result="shape"/>
<feColorMatrix in="SourceAlpha" type="matrix" values="0 0 0 0 0 0 0 0 0 0 0 0 0 0 0 0 0 0 127 0" result="hardAlpha"/>
<feOffset/>
<feGaussianBlur stdDeviation="0.208485"/>
<feComposite in2="hardAlpha" operator="arithmetic" k2="-1" k3="1"/>
<feColorMatrix type="matrix" values="0 0 0 0 1 0 0 0 0 1 0 0 0 0 1 0 0 0 1 0"/>
<feBlend mode="normal" in2="shape" result="effect2_innerShadow_124_24391"/>
</filter>
<linearGradient id="paint0_linear_124_24391" x1="15" y1="34" x2="32.4809" y2="15.2227" gradientUnits="userSpaceOnUse">
<stop stop-color="#95C8FF"/>
<stop offset="0.709084" stop-color="#1684FC"/>
<stop offset="1" stop-color="#1684FC"/>
</linearGradient>
</defs>
</svg>